<svg width="64" height="64" viewBox="0 0 64 64" fill="none" xmlns="http://www.w3.org/2000/svg">
  <rect x="6" y="10" width="52" height="44" rx="14" fill="#0F172A"/>
  <path d="M48 28H40V20C40 18.3431 38.6569 17 37 17H27C25.3431 17 24 18.3431 24 20V28H16C14.3431 28 13 29.3431 13 31V33C13 34.6569 14.3431 36 16 36H24V44C24 45.6569 25.3431 47 27 47H37C38.6569 47 40 45.6569 40 44V36H48C49.6569 36 51 34.6569 51 33V31C51 29.3431 49.6569 28 48 28Z" fill="#38BDF8"/>
  <path d="M22 50.5L23 58C23.1657 59.4018 24.876 60.0892 25.968 59.168L32 54H39C44.5228 54 49 49.5228 49 44V43.5" stroke="#0F172A" stroke-width="4" stroke-linecap="round" stroke-linejoin="round"/>
</svg>

